<svg xmlns="http://www.w3.org/2000/svg" width="20.193" height="22.11" viewBox="0 0 20.193 22.11"><defs><style>.a{fill:none;stroke:#fff;stroke-linecap:round;stroke-linejoin:round;stroke-width:2px;}</style></defs><g transform="translate(-1.904 -0.97)"><path class="a" d="M21,16V8a2,2,0,0,0-1-1.73l-7-4a2,2,0,0,0-2,0l-7,4A2,2,0,0,0,3,8v8a2,2,0,0,0,1,1.73l7,4a2,2,0,0,0,2,0l7-4A2,2,0,0,0,21,16Z"/><path class="a" d="M3.27,6.96,12,12.01l8.73-5.05"/><line class="a" y1="10.08" transform="translate(12 12)"/></g></svg>